<svg id="Layer_1" data-name="Layer 1" xmlns="http://www.w3.org/2000/svg" xmlns:xlink="http://www.w3.org/1999/xlink" viewBox="0 0 127.56 28.35"><defs><style>.cls-1,.cls-10,.cls-11,.cls-12,.cls-13,.cls-14,.cls-2,.cls-3,.cls-4,.cls-6,.cls-7,.cls-8{fill-rule:evenodd;}.cls-1{fill:url(#GradientFill_1);}.cls-2{fill:#80c342;}.cls-3{fill:url(#GradientFill_2);}.cls-4{fill:url(#GradientFill_3);}.cls-5{fill:#00904c;}.cls-6{fill:#50b848;}.cls-7{fill:url(#GradientFill_4);}.cls-8{fill:url(#GradientFill_3-2);}.cls-9{fill:#f15a22;}.cls-10{fill:url(#GradientFill_5);}.cls-11,.cls-16{fill:#bfd730;}.cls-12{fill:url(#GradientFill_2-2);}.cls-13{fill:url(#GradientFill_1-2);}.cls-14{fill:url(#GradientFill_6);}.cls-15{fill:#f58220;}</style><linearGradient id="GradientFill_1" x1="10.64" y1="6.23" x2="20.38" y2="6.23" gradientUnits="userSpaceOnUse"><stop offset="0" stop-color="#007a48"/><stop offset="1" stop-color="#00a651"/></linearGradient><linearGradient id="GradientFill_2" x1="113.17" y1="22.98" x2="113.17" y2="8.94" gradientUnits="userSpaceOnUse"><stop offset="0" stop-color="#00a651"/><stop offset="1" stop-color="#007a48"/></linearGradient><linearGradient id="GradientFill_3" x1="111.54" y1="7.15" x2="120.47" y2="7.15" gradientUnits="userSpaceOnUse"><stop offset="0" stop-color="#f15a22"/><stop offset="1" stop-color="#f58220"/></linearGradient><linearGradient id="GradientFill_4" x1="30.42" y1="23.37" x2="30.42" y2="8.99" gradientUnits="userSpaceOnUse"><stop offset="0" stop-color="#f58220"/><stop offset="1" stop-color="#f15a22"/></linearGradient><linearGradient id="GradientFill_3-2" x1="79.66" y1="21.26" x2="89.39" y2="21.26" xlink:href="#GradientFill_3"/><linearGradient id="GradientFill_5" x1="47.22" y1="23.38" x2="47.22" y2="8.8" gradientUnits="userSpaceOnUse"><stop offset="0" stop-color="#00aeef"/><stop offset="1" stop-color="#0066b3"/></linearGradient><linearGradient id="GradientFill_2-2" x1="60.25" y1="22.98" x2="60.25" y2="9.11" xlink:href="#GradientFill_2"/><linearGradient id="GradientFill_1-2" x1="72.08" y1="19.07" x2="72.08" y2="5.36" xlink:href="#GradientFill_1"/><linearGradient id="GradientFill_6" x1="100.76" y1="22.98" x2="100.76" y2="5.36" gradientUnits="userSpaceOnUse"><stop offset="0" stop-color="#00aeef"/><stop offset="0.5" stop-color="#0066b3"/><stop offset="1" stop-color="#00aeef"/></linearGradient></defs><g id="Econext_cor" data-name="Econext cor"><g id="Color"><path class="cls-1" d="M10.64,8.81H17a3.45,3.45,0,0,0,3.41-3.45V3.64a1.72,1.72,0,0,1-1.71,1.72H14A3.45,3.45,0,0,0,10.64,8.81Z"/><path class="cls-2" d="M7.09,23H20.5V19.53H10.94V8.81a3.45,3.45,0,0,1,3.4-3.45H10.49a3.45,3.45,0,0,0-3.4,3.32Z"/><path class="cls-2" d="M58.33,23h3.83V11.78L70,22.1h0l0,0a1.86,1.86,0,0,0,1.74.84,2.38,2.38,0,0,0,2.2-2.2V5.36H70.16V16.21l-7.64-10a2.39,2.39,0,0,0-4.19,1.55Z"/><polygon class="cls-2" points="111.23 22.98 115.11 22.98 115.11 8.94 120.47 8.94 120.47 5.36 105.87 5.36 105.87 8.94 111.23 8.94 111.23 22.98"/><path class="cls-3" d="M111.23,23h3.88V12.81a3.87,3.87,0,0,0-3.88-3.87Z"/><path class="cls-4" d="M120.47,8.94V5.36h-8.93a3.57,3.57,0,0,1,3.57,3.58Z"/><rect class="cls-5" x="14.39" y="12.39" width="4.86" height="3.45"/><path class="cls-6" d="M10.94,8.81a3.45,3.45,0,0,1,3.4-3.45H10.49a3.45,3.45,0,0,0-3.4,3.32v3.45a3.45,3.45,0,0,1,3.4-3.32h.45Z"/><path class="cls-2" d="M37.43,20.68a9.2,9.2,0,1,1,0-13l-2.71,2.7c-3.29-3.3-7.6-.45-7.6,0a5.38,5.38,0,0,0,0,7.61c0,.44,4.31,3.29,7.6,0Z"/><path class="cls-7" d="M37.43,20.68a9.21,9.21,0,0,1-3,2,9,9,0,0,1-3,.69,10.84,10.84,0,0,1-1.51,0,9.08,9.08,0,0,1-2.84-.79,5.6,5.6,0,0,1-1.27-.87h0C21.1,17.42,23.85,10.24,29.46,9a5.44,5.44,0,0,0-2.34,1.38h0a5.37,5.37,0,0,0,0,7.61h0a5.35,5.35,0,0,0,3.8,1.57A5.23,5.23,0,0,0,34.72,18Z"/><path class="cls-8" d="M79.66,19.53H86A3.45,3.45,0,0,1,89.39,23H83.06A3.45,3.45,0,0,1,79.66,19.53Z"/><path class="cls-2" d="M76.1,5.36H89.52V8.81H80V19.53A3.44,3.44,0,0,0,83.36,23H79.5a3.45,3.45,0,0,1-3.4-3.32Z"/><rect class="cls-9" x="83.4" y="12.51" width="4.86" height="3.45"/><path class="cls-6" d="M80,19.53A3.44,3.44,0,0,0,83.36,23H79.5a3.45,3.45,0,0,1-3.4-3.32V16.21a3.45,3.45,0,0,0,3.4,3.32H80Z"/><path class="cls-2" d="M47.22,5a9.17,9.17,0,0,1,6.5,2.7h0a9.19,9.19,0,0,1,0,13h0a9.19,9.19,0,0,1-13,0h0a9.19,9.19,0,0,1,0-13h0A9.18,9.18,0,0,1,47.22,5ZM51,10.36a5.4,5.4,0,0,0-7.61,0h0a5.4,5.4,0,0,0,0,7.61h0A5.4,5.4,0,0,0,51,18h0a5.4,5.4,0,0,0,0-7.61Z"/><path class="cls-10" d="M54.39,19.94l-.67.74h0a9.19,9.19,0,0,1-13,0h0a6.51,6.51,0,0,1,.53-9.75h0A9.09,9.09,0,0,1,47.14,8.8a5.38,5.38,0,1,0,.15,0,9.14,9.14,0,0,1,5.9,2.13h0A6.57,6.57,0,0,1,54.39,19.94Z"/><path class="cls-11" d="M20.5,19.65H10.82V8.93a3.57,3.57,0,0,1,3.54-3.57h4.2a1.81,1.81,0,0,0,1.59-1.72h.23a2,2,0,0,1-1.82,1.95h-4.2a3.33,3.33,0,0,0-3.31,3.34V19.42H20.5v.23Zm17,1.11a9.73,9.73,0,0,1-6,2.7,7.68,7.68,0,0,1-5.81-1.72,7.07,7.07,0,0,1-2.14-7.34,7.93,7.93,0,0,1,1.75-3.12,7.85,7.85,0,0,1,4.11-2.4,5.66,5.66,0,0,1,2.9,0,5.31,5.31,0,0,1,2.38,1.37l2.63-2.62.16.16-2.79,2.78-.08-.08a5.08,5.08,0,0,0-2.36-1.39,5.46,5.46,0,0,0-2.79,0h0a7.64,7.64,0,0,0-4,2.33,7.77,7.77,0,0,0-1.7,3,6.87,6.87,0,0,0-.12,3.43,7,7,0,0,0,2.19,3.68,7.45,7.45,0,0,0,5.64,1.65,9.47,9.47,0,0,0,5.84-2.63l.16.16ZM47.14,8.68h.15a9.68,9.68,0,0,1,3.22.57,9,9,0,0,1,2.68,1.54h0l.07.07a7,7,0,0,1,2.46,4.4A6.56,6.56,0,0,1,54.48,20c-.09.15-.58.65-.75.84h0a9.31,9.31,0,0,1-13,0h0l-.08-.08a4.38,4.38,0,0,1-.36-.39,6.45,6.45,0,0,1-1.61-4.62,7,7,0,0,1,2.08-4.51c.14-.13.28-.27.43-.39l.07-.07h0a8.8,8.8,0,0,1,2.67-1.54,9.68,9.68,0,0,1,3.22-.57Zm.15.23h-.15A9.25,9.25,0,0,0,44,9.47,8.37,8.37,0,0,0,41.32,11l-.07.06h0l-.34.32a6.74,6.74,0,0,0-2,4.36,6.19,6.19,0,0,0,1.55,4.46,3.65,3.65,0,0,0,.27.3h0l.08.08a9.09,9.09,0,0,0,12.85,0l.07-.07.59-.66a6.36,6.36,0,0,0,1.2-4.59,6.86,6.86,0,0,0-2.31-4.2h0L53.11,11a8.43,8.43,0,0,0-2.67-1.55,9.31,9.31,0,0,0-3.15-.56ZM58.33,23V10.31a1.32,1.32,0,0,1,.39-.93A1.06,1.06,0,0,1,59.53,9a1.31,1.31,0,0,1,.59.14,1.33,1.33,0,0,1,.46.39l9.56,12.54a2.07,2.07,0,0,0,.63.59,2.13,2.13,0,0,0,1,.21,1.94,1.94,0,0,0,1.34-.68,2,2,0,0,0,.63-1.41V5.36H74V20.78a2.25,2.25,0,0,1-.7,1.57,2.17,2.17,0,0,1-1.5.75,2.2,2.2,0,0,1-1.13-.25,2.13,2.13,0,0,1-.7-.64L60.4,9.67A1.1,1.1,0,0,0,60,9.34a1.14,1.14,0,0,0-.49-.11.83.83,0,0,0-.65.31,1.08,1.08,0,0,0-.32.77V23Zm31.19-14H80.07V19.42a3.35,3.35,0,0,0,3.31,3.34h6V23h-6a3.51,3.51,0,0,1-2.5-1.05,3.54,3.54,0,0,1-1-2.51V8.7h9.68v.23ZM87.17,1.69v.23H91.7l8,12.05L91.3,26.43H86.9v.23h4.52c2.92-4.2,5.63-8.51,8.56-12.69-2.79-4.05-5.39-8.22-8.16-12.28ZM114.88,23V12.81a3.76,3.76,0,0,0-3.76-3.76h-5.25V8.82h5.25a4,4,0,0,1,4,4V23Z"/><path class="cls-6" d="M62.16,11.78V9.27a1.2,1.2,0,0,1,1.2-1.2,1.22,1.22,0,0,1,1,.49v0l-1.8-2.37a2.39,2.39,0,0,0-4.19,1.55v2.59a1.2,1.2,0,0,1,1.2-1.2,1.19,1.19,0,0,1,1,.49Z"/><path class="cls-12" d="M58.33,23h3.83V11.78L60.49,9.6a1.19,1.19,0,0,0-1-.49,1.2,1.2,0,0,0-1.2,1.2Z"/><path class="cls-6" d="M71.79,23a2.38,2.38,0,0,0,2.2-2.2V18a1.19,1.19,0,0,1-1.1,1.1,1,1,0,0,1-.89-.44l-1.84-2.42V19a1.18,1.18,0,0,1-1.1,1.1.94.94,0,0,1-.88-.44l1.87,2.46A1.86,1.86,0,0,0,71.79,23Z"/><path class="cls-13" d="M74,18V5.36H70.16V16.21L72,18.63a1,1,0,0,0,.89.44A1.19,1.19,0,0,0,74,18Z"/><polygon class="cls-14" points="106.13 22.98 101.59 22.98 95.4 14.02 101.47 5.36 105.87 5.36 99.98 13.97 106.13 22.98"/><polygon class="cls-2" points="86.9 26.43 91.3 26.43 99.98 13.97 91.7 1.92 87.17 1.92 95.4 14.02 86.9 26.43"/><polygon class="cls-6" points="97.67 17.3 99.98 13.97 97.73 10.7 95.4 14.02 97.67 17.3"/><rect class="cls-15" x="83.4" y="12.51" width="4.86" height="0.23"/><rect class="cls-16" x="14.39" y="12.39" width="4.86" height="0.23"/></g></g></svg>